# xmcd
#
# Track frame offsets: 
#        150
#        14827
#        27210
#        43010
#        53615
#        65132
#        78292
#        94110
#        108580
#        128452
#        142195
#        153802
#        172085
#        187637
#        196470
#
# Disc length: 2880 seconds
#
# Revision: 0
# Processed by: cddbd v1.4PL0 Copyright (c) Steve Scherf et al.
# Submitted via: ExactAudioCopy v0.90a11
#
DISCID=c70b3e0f
DTITLE=Various Artist - So schön kingt Blasmusik - Folge 4
DYEAR=1900
DGENRE=
TTITLE0=Rundfunkblasorchester Leipzig - GRAF ZEPPELIN
TTITLE1=Ernst Mosch und seine Original Egerländer Musikanten - ANNA PO
TTITLE1=LKA
TTITLE2=Vlado Kumpan - SWING POLKA BALANCE
TTITLE3=Militärmusik Salzburg - EGERLÄNDER MARSCH
TTITLE4=Die Egerländer Musikanten - BÖHMISCHES GOLD
TTITLE5=Kurt Pascher und seine Böhmerwäler Musikanten - BÖHMISCHES GEM
TTITLE5=ÜT
TTITLE6=Militärmusik Kärnten - FURCHTLOS UND TREU
TTITLE7=Blasorchester Wolfgang Grünbauer - FREUNDE DER BLASMUSIK
TTITLE8=Altbairische Blasmusik - KLARINETTENFREUNDE
TTITLE9=Gebirgsmusikkorps 8 Garmisch-Partenkirchen - KÖNIG LUDWIG II.-
TTITLE9=MARSCH
TTITLE10=Neue Böhmische Blasmusik - PUSZTAZAUBER
TTITLE11=Heeresmusikkorps 4 Regensburg - EUROPA UNITA
TTITLE12=Blasorchester Georg Ried - CZARDAS
TTITLE13=Scherzachtaler Blasmusik - ALLTAGSGESCHICHTEN
TTITLE14=Musikkorps der Bayerischen Polizei - MENS SANA IN CORPORE SAN
TTITLE14=O
EXTD=
EXTT0=
EXTT1=
EXTT2=
EXTT3=
EXTT4=
EXTT5=
EXTT6=
EXTT7=
EXTT8=
EXTT9=
EXTT10=
EXTT11=
EXTT12=
EXTT13=
EXTT14=
PLAYORDER=
